<svg xmlns="http://www.w3.org/2000/svg" width="256.134" height="50.348" viewBox="0 0 256.134 50.348">
  <g id="Group_2611" data-name="Group 2611" transform="translate(-304.385 469.658)">
    <path id="Path_12464" data-name="Path 12464" d="M332.295-454.933c0,8.206-5.713,13.191-13.229,13.191-8.435,0-14.494-6.212-14.494-13.919a13.92,13.92,0,0,1,14.073-14,13.729,13.729,0,0,1,11.733,6.135l-5.215,2.991a7.675,7.675,0,0,0-6.557-3.144,7.717,7.717,0,0,0-7.9,8.052c0,4.563,3.221,7.9,8.436,7.9,3.566,0,5.905-1.572,6.864-4.141h-7.171v-5.369h13.459Z" transform="translate(-0.129 0)" fill="#fff"/>
    <path id="Path_12465" data-name="Path 12465" d="M411.968-455.261h4.6a3.25,3.25,0,0,0,3.067-3.451,3.25,3.25,0,0,0-3.067-3.451h-4.6Zm2.914,5.368h-2.914v8.819h-6.135v-26.842H416.57a9.181,9.181,0,0,1,9.2,9.2,8.847,8.847,0,0,1-4.947,7.784l5.713,9.855h-6.6Z" transform="translate(-70.217 -1.206)" fill="#fff"/>
    <path id="Path_12466" data-name="Path 12466" d="M499.307-446.978v5.905H482.435v-26.842h16.68v5.905H488.57v4.448h9.587v5.829H488.57v4.755Z" transform="translate(-123.237 -1.207)" fill="#fff"/>
    <path id="Path_12467" data-name="Path 12467" d="M565.321-446.978v5.905H548.45v-26.842h16.68v5.905H554.585v4.448h9.586v5.829h-9.586v4.755Z" transform="translate(-168.929 -1.207)" fill="#fff"/>
    <path id="Path_12468" data-name="Path 12468" d="M635.554-467.914v26.842h-4.6L620.6-455.644v14.571h-6.135v-26.842h4.6l10.353,14.571v-14.571Z" transform="translate(-214.621 -1.207)" fill="#fff"/>
    <path id="Path_12469" data-name="Path 12469" d="M716.986-467.914v26.842h-6.135v-10.66h-8.436v10.66H696.28v-26.842h6.135v10.276h8.436v-10.276Z" transform="translate(-271.249 -1.207)" fill="#fff"/>
    <path id="Path_12470" data-name="Path 12470" d="M795.358-446.978v5.905H778.487v-26.842h16.68v5.905H784.622v4.448h9.586v5.829h-9.586v4.755Z" transform="translate(-328.148 -1.207)" fill="#fff"/>
    <path id="Path_12471" data-name="Path 12471" d="M854.454-451.043,851.31-460.9l-3.144,9.855Zm1.841,5.752h-9.97l-1.342,4.218h-6.711l9.126-26.842h7.822l9.126,26.842h-6.711Z" transform="translate(-369.529 -1.206)" fill="#fff"/>
    <path id="Path_12472" data-name="Path 12472" d="M936.578-455.261h4.6a3.25,3.25,0,0,0,3.068-3.451,3.25,3.25,0,0,0-3.068-3.451h-4.6Zm2.914,5.368h-2.914v8.819h-6.135v-26.842H941.18a9.181,9.181,0,0,1,9.2,9.2,8.847,8.847,0,0,1-4.947,7.784l5.714,9.855h-6.6Z" transform="translate(-433.325 -1.206)" fill="#fff"/>
    <path id="Path_12473" data-name="Path 12473" d="M1018.886-462.009h-6.9v20.936h-6.135v-20.936h-6.9v-5.905h19.94Z" transform="translate(-480.739 -1.207)" fill="#fff"/>
    <path id="Path_12474" data-name="Path 12474" d="M313.252-342v1.058h-8.105v-14.814h1.122V-342Z" transform="translate(-0.527 -78.84)" fill="#fff"/>
    <path id="Path_12475" data-name="Path 12475" d="M312.959-341.23h-8.574v-15.283h1.59v13.756h6.984Zm-8.105-.469h7.637v-.589h-6.984v-13.756h-.653Z" transform="translate(0 -78.313)" fill="#fff"/>
    <path id="Path_12476" data-name="Path 12476" d="M347.567-342v1.058h-8.529v-14.814h8.423v1.058h-7.3v5.757h6.772v1.058h-6.772V-342Z" transform="translate(-23.985 -78.84)" fill="#fff"/>
    <path id="Path_12477" data-name="Path 12477" d="M347.274-341.23h-9v-15.283h8.892v1.527h-7.3v5.288h6.772v1.527h-6.772v5.415h7.407Zm-8.529-.469h8.06v-.589H339.4v-6.352h6.772v-.59H339.4v-6.225h7.3v-.589h-7.955Z" transform="translate(-23.458 -78.313)" fill="#fff"/>
    <path id="Path_12478" data-name="Path 12478" d="M381.068-345.762l-3.3-8.614-3.3,8.614Zm.4,1.058h-7.428l-1.439,3.767h-1.185l5.757-14.814h1.186l5.735,14.814h-1.185Z" transform="translate(-46.396 -78.841)" fill="#fff"/>
    <path id="Path_12479" data-name="Path 12479" d="M383.666-341.229h-1.688L380.539-345h-7.106l-1.439,3.767H370.3l5.938-15.283h1.506ZM382.3-341.7h.681l-5.553-14.346h-.865L370.99-341.7h.682l1.439-3.767h7.751Zm-1.662-4.357h-7.284l3.643-9.5Zm-6.6-.469h5.922L377-354.248Z" transform="translate(-45.626 -78.314)" fill="#fff"/>
    <path id="Path_12480" data-name="Path 12480" d="M420.731-348.07h4.72a3.283,3.283,0,0,0,3.259-3.3,3.288,3.288,0,0,0-3.259-3.323h-4.72Zm4.677,1.058h-4.677v6.074h-1.122v-14.814h5.841a4.389,4.389,0,0,1,4.38,4.381,4.375,4.375,0,0,1-3.259,4.212l3.683,6.222h-1.291Z" transform="translate(-79.752 -78.84)" fill="#fff"/>
    <path id="Path_12481" data-name="Path 12481" d="M430.138-341.23H428.3l-3.556-6.074h-4.308v6.074h-1.59v-15.283h6.076a4.62,4.62,0,0,1,4.615,4.615,4.617,4.617,0,0,1-3.14,4.349Zm-1.567-.469h.746l-3.631-6.134.3-.08a4.152,4.152,0,0,0,3.086-3.986,4.151,4.151,0,0,0-4.146-4.146h-5.607V-341.7h.653v-6.074h5.045Zm-3.647-6.663H419.97v-7.093h4.954a3.529,3.529,0,0,1,3.493,3.557A3.519,3.519,0,0,1,424.924-348.362Zm-4.485-.469h4.485a3.05,3.05,0,0,0,3.025-3.067,3.06,3.06,0,0,0-3.025-3.088h-4.485Z" transform="translate(-79.225 -78.313)" fill="#fff"/>
    <path id="Path_12482" data-name="Path 12482" d="M472.607-355.752v14.814h-.995l-8.741-12.74v12.74H461.75v-14.814h.974l8.762,12.74v-12.74Z" transform="translate(-108.92 -78.84)" fill="#fff"/>
    <path id="Path_12483" data-name="Path 12483" d="M472.315-341.23h-1.352l-8.383-12.219v12.219h-1.59v-15.283h1.331l8.4,12.221v-12.221h1.59Zm-1.105-.469h.637v-14.346h-.653v13.26l-9.119-13.26h-.616V-341.7h.653V-354.96Z" transform="translate(-108.393 -78.313)" fill="#fff"/>
    <rect id="Rectangle_840" data-name="Rectangle 840" width="1.122" height="14.814" transform="translate(367.37 -434.592)" fill="#fff"/>
    <path id="Path_12484" data-name="Path 12484" d="M509.809-341.229h-1.59v-15.283h1.59Zm-1.122-.469h.653v-14.346h-.653Z" transform="translate(-141.083 -78.314)" fill="#fff"/>
    <path id="Path_12485" data-name="Path 12485" d="M535.442-355.752v14.814h-.994l-8.741-12.74v12.74h-1.122v-14.814h.974l8.761,12.74v-12.74Z" transform="translate(-152.411 -78.84)" fill="#fff"/>
    <path id="Path_12486" data-name="Path 12486" d="M535.15-341.23H533.8l-8.383-12.219v12.219h-1.59v-15.283h1.331l8.4,12.221v-12.221h1.59Zm-1.105-.469h.637v-14.346h-.653v13.26l-9.119-13.26h-.616V-341.7h.653V-354.96Z" transform="translate(-151.884 -78.313)" fill="#fff"/>
    <path id="Path_12487" data-name="Path 12487" d="M584.007-347.789c0,3.577-2.73,6.561-7.154,6.561a7.528,7.528,0,0,1-7.788-7.64,7.507,7.507,0,0,1,7.7-7.64,7.3,7.3,0,0,1,6.37,3.577l-.995.593a6.021,6.021,0,0,0-5.375-3.09,6.4,6.4,0,0,0-6.582,6.561,6.423,6.423,0,0,0,6.667,6.561c3.6,0,5.778-2.222,6.011-4.995h-6.286v-1.058h7.429Z" transform="translate(-183.198 -78.317)" fill="#fff"/>
    <path id="Path_12488" data-name="Path 12488" d="M576.326-341.52a7.775,7.775,0,0,1-8.022-7.875,7.733,7.733,0,0,1,7.938-7.874,7.548,7.548,0,0,1,6.574,3.694l.115.2-1.406.837-.115-.219a5.815,5.815,0,0,0-5.168-2.964,6.2,6.2,0,0,0-6.348,6.326,6.171,6.171,0,0,0,6.433,6.326c3.119,0,5.4-1.808,5.75-4.526h-6.26v-1.527h7.9v.806C583.714-344.378,580.607-341.52,576.326-341.52Zm-.085-15.28a7.274,7.274,0,0,0-7.469,7.405,7.317,7.317,0,0,0,7.553,7.406c4.009,0,6.92-2.66,6.92-6.326v-.337h-6.961v.589h6.306l-.021.254c-.262,3.116-2.771,5.209-6.244,5.209a6.624,6.624,0,0,1-6.9-6.8,6.656,6.656,0,0,1,6.816-6.795,6.322,6.322,0,0,1,5.463,3l.586-.348A7.1,7.1,0,0,0,576.242-356.8Z" transform="translate(-182.671 -77.79)" fill="#fff"/>
    <path id="Path_12489" data-name="Path 12489" d="M653.628-351.159a3.391,3.391,0,0,0-3.492-3.534h-3.915v7.048h3.915a3.385,3.385,0,0,0,3.492-3.513m1.122,0a4.472,4.472,0,0,1-4.614,4.571h-3.915v5.651H645.1v-14.814h5.037a4.477,4.477,0,0,1,4.614,4.593" transform="translate(-235.824 -78.84)" fill="#fff"/>
    <path id="Path_12490" data-name="Path 12490" d="M645.928-341.23h-1.59v-15.283h5.271a4.731,4.731,0,0,1,4.848,4.827,4.721,4.721,0,0,1-4.848,4.806h-3.681Zm-1.122-.469h.654v-5.651h4.15a4.216,4.216,0,0,0,4.38-4.337,4.226,4.226,0,0,0-4.38-4.358h-4.8Zm4.8-6.24h-4.15v-7.516h4.15a3.624,3.624,0,0,1,3.726,3.769A3.614,3.614,0,0,1,649.609-347.939Zm-3.681-.469h3.681a3.161,3.161,0,0,0,3.257-3.279,3.171,3.171,0,0,0-3.257-3.3h-3.681Z" transform="translate(-235.298 -78.313)" fill="#fff"/>
    <path id="Path_12491" data-name="Path 12491" d="M685.342-345.762l-3.3-8.614-3.3,8.614Zm.4,1.058h-7.428l-1.439,3.767h-1.185l5.757-14.814h1.185l5.735,14.814h-1.185Z" transform="translate(-256.999 -78.841)" fill="#fff"/>
    <path id="Path_12492" data-name="Path 12492" d="M687.941-341.229h-1.688L684.814-345h-7.106l-1.44,3.767H674.58l5.939-15.283h1.506Zm-1.365-.469h.682L681.7-356.043h-.865L675.265-341.7h.681l1.439-3.767h7.751Zm-1.662-4.357h-7.284l3.642-9.5Zm-6.6-.469h5.922l-2.961-7.725Z" transform="translate(-256.23 -78.314)" fill="#fff"/>
    <path id="Path_12493" data-name="Path 12493" d="M725-348.07h4.719a3.283,3.283,0,0,0,3.259-3.3,3.288,3.288,0,0,0-3.259-3.323H725Zm4.677,1.058H725v6.074h-1.122v-14.814h5.841a4.389,4.389,0,0,1,4.381,4.381,4.375,4.375,0,0,1-3.259,4.212l3.682,6.222h-1.291Z" transform="translate(-290.355 -78.84)" fill="#fff"/>
    <path id="Path_12494" data-name="Path 12494" d="M734.413-341.23h-1.836l-3.555-6.074h-4.309v6.074h-1.59v-15.283H729.2a4.62,4.62,0,0,1,4.615,4.615,4.617,4.617,0,0,1-3.14,4.349Zm-1.567-.469h.745l-3.63-6.134.3-.08a4.152,4.152,0,0,0,3.086-3.986,4.151,4.151,0,0,0-4.146-4.146h-5.607V-341.7h.653v-6.074h5.046Zm-3.648-6.663h-4.953v-7.093H729.2a3.53,3.53,0,0,1,3.494,3.557A3.519,3.519,0,0,1,729.2-348.362Zm-4.485-.469H729.2a3.05,3.05,0,0,0,3.025-3.067,3.061,3.061,0,0,0-3.025-3.088h-4.485Z" transform="translate(-289.829 -78.313)" fill="#fff"/>
    <path id="Path_12495" data-name="Path 12495" d="M771.049-354.693h-4.656v13.756H765.25v-13.756h-4.656v-1.058h10.455Z" transform="translate(-315.764 -78.84)" fill="#fff"/>
    <path id="Path_12496" data-name="Path 12496" d="M766.1-341.23H764.49v-13.756h-4.656v-1.527h10.923v1.527H766.1Zm-1.143-.469h.675v-13.756h4.656v-.589H760.3v.589h4.656Z" transform="translate(-315.238 -78.313)" fill="#fff"/>
    <path id="Path_12497" data-name="Path 12497" d="M812.973-355.752v14.814h-.994l-8.741-12.74v12.74h-1.122v-14.814h.974l8.761,12.74v-12.74Z" transform="translate(-344.504 -78.84)" fill="#fff"/>
    <path id="Path_12498" data-name="Path 12498" d="M812.681-341.23h-1.352l-.07-.1-8.313-12.117v12.219h-1.591v-15.283h1.331l8.4,12.221v-12.221h1.59Zm-1.105-.469h.637v-14.346h-.654v13.26l-9.119-13.26h-.616V-341.7h.654V-354.96Z" transform="translate(-343.977 -78.313)" fill="#fff"/>
    <path id="Path_12499" data-name="Path 12499" d="M857.876-342v1.058h-8.529v-14.814h8.423v1.058h-7.3v5.757h6.772v1.058h-6.772V-342Z" transform="translate(-377.195 -78.84)" fill="#fff"/>
    <path id="Path_12500" data-name="Path 12500" d="M857.584-341.23h-9v-15.283h8.891v1.527h-7.3v5.288h6.772v1.527h-6.772v5.415h7.407Zm-8.529-.469h8.06v-.589h-7.407v-6.352h6.772v-.59h-6.772v-6.225h7.3v-.589h-7.954Z" transform="translate(-376.668 -78.313)" fill="#fff"/>
    <path id="Path_12501" data-name="Path 12501" d="M887.111-348.07h4.719a3.284,3.284,0,0,0,3.259-3.3,3.288,3.288,0,0,0-3.259-3.323h-4.719Zm4.677,1.058h-4.677v6.074h-1.122v-14.814h5.841a4.389,4.389,0,0,1,4.381,4.381,4.375,4.375,0,0,1-3.26,4.212l3.683,6.222h-1.291Z" transform="translate(-402.556 -78.84)" fill="#fff"/>
    <path id="Path_12502" data-name="Path 12502" d="M896.519-341.23h-1.836l-3.555-6.074h-4.308v6.074h-1.59v-15.283H891.3a4.62,4.62,0,0,1,4.615,4.615,4.617,4.617,0,0,1-3.14,4.349Zm-1.567-.469h.745l-3.631-6.134.3-.08a4.152,4.152,0,0,0,3.086-3.986,4.151,4.151,0,0,0-4.146-4.146H885.7V-341.7h.653v-6.074H891.4Zm-3.647-6.663H886.35v-7.093H891.3A3.53,3.53,0,0,1,894.8-351.9,3.519,3.519,0,0,1,891.3-348.362Zm-4.485-.469H891.3a3.05,3.05,0,0,0,3.025-3.067,3.06,3.06,0,0,0-3.025-3.088h-4.485Z" transform="translate(-402.03 -78.313)" fill="#fff"/>
    <path id="Path_12503" data-name="Path 12503" d="M924.556-344.719l.973-.571c.508,1.778,2.011,2.984,4.445,2.984,2.476,0,3.725-1.27,3.725-2.963,0-1.778-1.566-2.455-3.831-3.175-2.476-.8-4.7-1.5-4.7-4.085,0-2.434,1.968-3.979,4.487-3.979a4.974,4.974,0,0,1,4.762,3.111l-.952.529a3.894,3.894,0,0,0-3.809-2.561c-2.053,0-3.344,1.206-3.344,2.857,0,1.777,1.5,2.328,3.619,3.026,2.624.868,4.91,1.693,4.91,4.254,0,2.455-1.926,4.063-4.867,4.063-2.773,0-4.741-1.4-5.418-3.492" transform="translate(-429.25 -78.317)" fill="#fff"/>
    <path id="Path_12504" data-name="Path 12504" d="M929.343-341.52c-2.793,0-4.9-1.366-5.641-3.655l-.058-.179,1.4-.82.083.291c.511,1.788,2.049,2.814,4.22,2.814,2.186,0,3.49-1.02,3.49-2.728,0-1.519-1.183-2.162-3.667-2.951l-.067-.022c-2.466-.8-4.8-1.557-4.8-4.287,0-2.48,1.941-4.213,4.721-4.213A5.227,5.227,0,0,1,934-354.014l.081.193-1.366.759-.1-.243a3.661,3.661,0,0,0-3.593-2.416c-1.86,0-3.109,1.054-3.109,2.623s1.314,2.1,3.458,2.8c2.493.824,5.071,1.677,5.071,4.477C934.445-343.248,932.395-341.52,929.343-341.52Zm-5.134-3.622c.724,1.978,2.628,3.153,5.134,3.153,2.815,0,4.633-1.5,4.633-3.829,0-2.29-1.88-3.083-4.749-4.032-2.028-.669-3.779-1.247-3.779-3.248,0-1.82,1.471-3.092,3.578-3.092a4.115,4.115,0,0,1,3.92,2.466l.541-.3a4.707,4.707,0,0,0-4.461-2.776c-2.5,0-4.252,1.54-4.252,3.744,0,2.389,2.072,3.062,4.471,3.841l.065.021c2.261.719,3.992,1.425,3.992,3.4s-1.517,3.2-3.959,3.2a4.474,4.474,0,0,1-4.579-2.868Z" transform="translate(-428.62 -77.79)" fill="#fff"/>
    <path id="Path_12505" data-name="Path 12505" d="M977.417-355.752v14.814h-1.122v-7.09h-8.613v7.09H966.56v-14.814h1.122v6.667h8.613v-6.667Z" transform="translate(-458.323 -78.84)" fill="#fff"/>
    <path id="Path_12506" data-name="Path 12506" d="M977.125-341.23h-1.59v-7.09h-8.145v7.09H965.8v-15.283h1.59v6.667h8.145v-6.667h1.59ZM976-341.7h.654v-14.346H976v6.667h-9.082v-6.667h-.654V-341.7h.654v-7.09H976Z" transform="translate(-457.796 -78.313)" fill="#fff"/>
    <rect id="Rectangle_841" data-name="Rectangle 841" width="1.122" height="14.814" transform="translate(522.777 -434.592)" fill="#fff"/>
    <path id="Path_12507" data-name="Path 12507" d="M1014.618-341.229h-1.59v-15.283h1.59Zm-1.122-.469h.653v-14.346h-.653Z" transform="translate(-490.486 -78.314)" fill="#fff"/>
    <path id="Path_12508" data-name="Path 12508" d="M1037.923-351.159a3.391,3.391,0,0,0-3.492-3.534h-3.915v7.048h3.915a3.385,3.385,0,0,0,3.492-3.513m1.122,0a4.472,4.472,0,0,1-4.614,4.571h-3.915v5.651h-1.122v-14.814h5.037a4.477,4.477,0,0,1,4.614,4.593" transform="translate(-501.813 -78.84)" fill="#fff"/>
    <path id="Path_12509" data-name="Path 12509" d="M1030.224-341.23h-1.591v-15.283h5.271a4.731,4.731,0,0,1,4.848,4.827,4.721,4.721,0,0,1-4.848,4.806h-3.681Zm-1.122-.469h.654v-5.651h4.149a4.215,4.215,0,0,0,4.379-4.337,4.226,4.226,0,0,0-4.379-4.358h-4.8Zm4.8-6.24h-4.149v-7.516h4.149a3.625,3.625,0,0,1,3.726,3.769A3.614,3.614,0,0,1,1033.9-347.939Zm-3.681-.469h3.681a3.161,3.161,0,0,0,3.258-3.279,3.171,3.171,0,0,0-3.258-3.3h-3.681Z" transform="translate(-501.287 -78.313)" fill="#fff"/>
    <path id="Path_12510" data-name="Path 12510" d="M1086.535-341.229a1.276,1.276,0,0,1-.221-.019,1.963,1.963,0,0,1-.773-.373,37.334,37.334,0,0,1-5.046-4.255,10.846,10.846,0,0,1-2.808-4.082,4.78,4.78,0,0,1,.984-4.887,4.516,4.516,0,0,1,4.4-.812h0a7.5,7.5,0,0,1,2.645,1.674c.176.151.357.307.542.458.889-1.485,2.223-3.019,4.517-2.986a5,5,0,0,1,4.653,3.727,6.264,6.264,0,0,1-.764,4.486,14.618,14.618,0,0,1-2.864,3.424,23.887,23.887,0,0,1-4.2,3.279A2.163,2.163,0,0,1,1086.535-341.229Zm-.887-1.262.335.238a1.3,1.3,0,0,0,.465.245,1.2,1.2,0,0,0,.752-.244.392.392,0,0,1-.1-.042.386.386,0,0,1-.183-.38,1.721,1.721,0,0,1-1.2.09Zm2.623-.565q-.16.171-.324.338.256-.17.5-.347A.391.391,0,0,1,1088.271-343.056Zm-5.719-1.927q1.09.979,2.257,1.87l0-.033a2.392,2.392,0,0,1-.466-.787.386.386,0,0,1-.3-.05.385.385,0,0,1-.164-.434q.084-.283.173-.565a2.727,2.727,0,0,1-.688.264.386.386,0,0,1-.4-.142.385.385,0,0,1-.031-.419,14.19,14.19,0,0,1,1.6-2.226q.033-.193.059-.386a6.925,6.925,0,0,1-.7.713A21.544,21.544,0,0,1,1082.552-344.983Zm3.681,1.7h0Zm-.58-1.863a8.71,8.71,0,0,0-.1,1.5,9.464,9.464,0,0,0,.748-1.366,10.212,10.212,0,0,1,.241-1.177Q1086.119-345.652,1085.653-345.148Zm2.406,1.053c-.011.054-.023.107-.034.161l.124-.143c.028-.084.055-.168.083-.252C1088.175-344.25,1088.118-344.172,1088.06-344.095Zm-1.009-.722a7.8,7.8,0,0,0-.065.837c.068-.082.135-.164.2-.248.044-.1.089-.2.137-.3.019-.039.039-.078.059-.116q.052-.268.1-.538a.386.386,0,0,1-.024-.324l.06-.159a.677.677,0,0,0-.045-.228C1087.344-345.527,1087.205-345.168,1087.051-344.817Zm2.667-.018q-.079.112-.16.223a8.61,8.61,0,0,0,1.344-1.253l-.014-.013A15.418,15.418,0,0,1,1089.718-344.835Zm-8.355-1.265q.236.232.477.46.064-.33.132-.659l-.006,0a.385.385,0,0,1-.118-.386l.036-.138Q1081.637-346.457,1081.364-346.1Zm8.09-2.523-.893,2.374q.25-.433.478-.885Q1089.249-347.878,1089.454-348.623Zm-9.158,1.418q.184.2.37.4.1-.532.216-1.059C1080.7-347.637,1080.5-347.417,1080.3-347.205Zm7.481-3.155a18.8,18.8,0,0,0-1.17,2.13,12.707,12.707,0,0,0-.551,1.4,16.087,16.087,0,0,0,1.633-2.644c.036-.138.072-.275.109-.413C1087.793-350.042,1087.786-350.2,1087.778-350.36Zm2.172,3.117-.053.179c.176-.106.349-.2.517-.3a.386.386,0,0,1,.431.04,9.964,9.964,0,0,1,1.176-3.6l-.013-.058a.386.386,0,0,1-.176-.327q0-.167.015-.334a6.631,6.631,0,0,1-.157-.832l-.126.11a19.908,19.908,0,0,1-1.273,4.352Q1090.127-347.618,1089.949-347.243Zm-6.667-1.283q-.136.528-.261,1.06.13-.093.255-.2a21.355,21.355,0,0,0,1.338-3.142c-.006-.054-.013-.107-.021-.161A14.818,14.818,0,0,0,1083.282-348.526Zm9.772-5.712a.386.386,0,0,1,.276.116,3.95,3.95,0,0,1,1.16,1.739,3.957,3.957,0,0,1-.318,2.266l-.829,2.319c-.028.077-.056.157-.086.237a9.116,9.116,0,0,0,.735-1.111,5.5,5.5,0,0,0,.688-3.929,4.209,4.209,0,0,0-3.916-3.138,3.585,3.585,0,0,0-1.816.438.984.984,0,0,1,.354.045.731.731,0,0,1,.308.195.381.381,0,0,1,.154.11l.017.022a2.261,2.261,0,0,1,.256-.154c.093-.12.189-.239.29-.355a.385.385,0,0,1,.462-.094.386.386,0,0,1,.2.251l.02,0a1.663,1.663,0,0,1,.561.156.394.394,0,0,1,.081.041,2.261,2.261,0,0,1,.977,1.162c.035-.053.072-.106.109-.158a.385.385,0,0,1,.284-.159Zm-14.055,5.3a9.264,9.264,0,0,0,.637.938c.049-.5.106-1,.179-1.488C1079.545-349.292,1079.272-349.11,1079-348.934Zm3-.169q-.157.547-.289,1.1c.219-.377.422-.764.613-1.158a.384.384,0,0,1-.286.064Zm6.585.171q0,.23-.008.461l.373-.99q-.163.227-.318.46Zm-3.118-.153q-.007.249-.023.5c.065-.079.128-.159.192-.238q.287-.563.6-1.113c.256-.634.522-1.269.819-1.886q-.192.236-.377.477A22.583,22.583,0,0,1,1085.463-349.085Zm-4.754-1.09c-.1.512-.172,1.042-.234,1.583a12.611,12.611,0,0,0,1.071-1.673l.01-.031a5.189,5.189,0,0,1,.061-.776A8.242,8.242,0,0,1,1080.709-350.174Zm12.123-.608c.018.107.034.216.045.325a4.167,4.167,0,0,1,.011.695,8.4,8.4,0,0,0,.2-1.424Q1092.954-350.988,1092.831-350.782Zm-14.459.43c.015.052.03.1.047.154s.037.109.056.163l.334-.847-.221.362A.384.384,0,0,1,1078.373-350.352Zm1.385-.831-.435,1.1c.235-.166.467-.338.691-.519.07-.333.151-.661.245-.981-.07.081-.139.164-.2.248A.387.387,0,0,1,1079.757-351.183Zm4.271-3.156a.388.388,0,0,1-.012.23,38.117,38.117,0,0,1-1.446,3.538l.658-.725q.2-.526.387-1.055.195-.575.4-1.145a.385.385,0,0,1,.491-.231.385.385,0,0,1,.235.49l-.182.522a.383.383,0,0,1,.243-.019.39.39,0,0,1,.109.046q.186-.225.381-.442a.391.391,0,0,1,.124-.092l-.2-.175A12.467,12.467,0,0,0,1084.028-354.339Zm1.928,1.56q-.172.786-.4,1.563.229-.281.471-.551a19.083,19.083,0,0,1,1.542-1.792,2.75,2.75,0,0,1,.169-.725,9.252,9.252,0,0,0-1.027,1.527.386.386,0,0,1-.257.189.385.385,0,0,1-.312-.07Zm-4.477.116a8.1,8.1,0,0,0-.412,1.046h0a5.164,5.164,0,0,0,.724-1.12c0-.039-.007-.077-.013-.115Q1081.627-352.762,1081.479-352.663Zm9.376-1.854a16.881,16.881,0,0,1-1.071,2.813q.323-.347.665-.678.272-1.064.532-2.126l-.043-.005C1090.911-354.515,1090.883-354.516,1090.856-354.516Zm-11.153-.141.239.321a3.545,3.545,0,0,0-1.348,2.326l1.795-2.948A3.275,3.275,0,0,0,1079.7-354.657Zm13.109,2.116c-.011.166-.031.331-.056.493.13-.172.267-.341.409-.5a.384.384,0,0,1,.375-.123,3.56,3.56,0,0,0-.425-.556A4.079,4.079,0,0,0,1092.811-352.541Zm-4.469-.067c0,.01,0,.019,0,.029q.169-.238.339-.474a.414.414,0,0,1-.036-.042C1088.542-352.936,1088.44-352.773,1088.342-352.608Zm-7.194-2.5a.385.385,0,0,1,.024.334l-.777,1.971q.237-.2.491-.387a6.3,6.3,0,0,1,1.4-1.845l.024-.02A4.217,4.217,0,0,0,1081.149-355.108Zm10.62,1.178q-.019.214-.043.428l.127-.1a.4.4,0,0,1,.061-.039A1.777,1.777,0,0,0,1091.768-353.93Zm-8.869-.973a.392.392,0,0,1,.031.114,4.056,4.056,0,0,1-.062,1.248q.215-.444.446-.881a.384.384,0,0,1,.25-.194A4.383,4.383,0,0,0,1082.9-354.9Z" transform="translate(-535.054 -78.314)" fill="#64d281"/>
  </g>
</svg>
