<svg xmlns="http://www.w3.org/2000/svg" width="25.132" height="17.4" viewBox="0 0 25.132 17.4">
  <path id="Path_12292" data-name="Path 12292" d="M133.532,128.8a1.865,1.865,0,0,0-1.027.312l10.885,10.311a1.079,1.079,0,0,0,1.571,0l10.864-10.311a1.864,1.864,0,0,0-1.027-.312H133.532Zm-1.812,1.329a2.04,2.04,0,0,0-.121.675V144.2a2.046,2.046,0,0,0,.312,1.1l7.693-7.683-7.884-7.482Zm24.891,0-7.864,7.471,7.673,7.693a2.047,2.047,0,0,0,.312-1.1V130.8a2.04,2.04,0,0,0-.121-.675Zm-8.8,8.368-1.963,1.863a2.432,2.432,0,0,1-3.343,0l-1.963-1.853-7.612,7.592a1.869,1.869,0,0,0,.6.1H154.8a1.869,1.869,0,0,0,.6-.1l-7.592-7.6Z" transform="translate(-131.598 -128.8)" fill="#fff"/>
</svg>
