<svg xmlns="http://www.w3.org/2000/svg" width="23.465" height="23.45" viewBox="0 0 23.465 23.45">
  <path id="Path_12290" data-name="Path 12290" d="M126.3,63.837a7.485,7.485,0,0,1,3.78-7.121c.264-.088.7-.615,2.462,1.583,1.671,2.2,2.9,3.956,1.846,4.923-1.143.967-2.813,2.2-1.934,3.868.7,1.495,5.275,5.979,6.682,6.682,1.758.879,2.9-.791,3.868-1.846.967-1.143,2.813.088,5.011,1.758,2.2,1.758,1.67,2.2,1.583,2.55a7.871,7.871,0,0,1-7.209,3.78c-4.748-.527-15.649-11.429-16.089-16.177Z" transform="translate(-126.255 -56.597)" fill="#fff" fill-rule="evenodd"/>
</svg>
