<svg id="instagram-logo_1_" data-name="instagram-logo (1)" xmlns="http://www.w3.org/2000/svg" width="21.424" height="21.424" viewBox="0 0 21.424 21.424">
  <path id="Path_8" data-name="Path 8" d="M15.512,0h-9.6A5.919,5.919,0,0,0,0,5.912v9.6a5.919,5.919,0,0,0,5.912,5.912h9.6a5.919,5.919,0,0,0,5.912-5.912v-9.6A5.919,5.919,0,0,0,15.512,0Zm4.012,15.512a4.016,4.016,0,0,1-4.012,4.011h-9.6A4.016,4.016,0,0,1,1.9,15.512v-9.6A4.016,4.016,0,0,1,5.912,1.9h9.6a4.016,4.016,0,0,1,4.012,4.011v9.6Z" transform="translate(0)" fill="#141414"/>
  <path id="Path_9" data-name="Path 9" d="M46.488,40.97a5.52,5.52,0,1,0,5.52,5.52A5.527,5.527,0,0,0,46.488,40.97Zm0,9.14a3.619,3.619,0,1,1,3.62-3.619A3.624,3.624,0,0,1,46.488,50.11Z" transform="translate(-35.776 -35.778)" fill="#141414"/>
  <path id="Path_10" data-name="Path 10" d="M120.315,28.251a1.393,1.393,0,1,0,.986.408A1.4,1.4,0,0,0,120.315,28.251Z" transform="translate(-103.851 -24.671)" fill="#141414"/>
</svg>
