<svg xmlns="http://www.w3.org/2000/svg" width="25.524" height="20.742" viewBox="0 0 25.524 20.742">
  <path id="Path_1057" data-name="Path 1057" d="M25.525,50.411a10.471,10.471,0,0,1-3.007.825,5.252,5.252,0,0,0,2.3-2.9,10.483,10.483,0,0,1-3.325,1.271,5.241,5.241,0,0,0-8.923,4.776A14.866,14.866,0,0,1,1.778,48.914,5.242,5.242,0,0,0,3.4,55.906a5.215,5.215,0,0,1-2.372-.655c0,.022,0,.044,0,.066a5.24,5.24,0,0,0,4.2,5.135,5.242,5.242,0,0,1-2.365.09,5.242,5.242,0,0,0,4.892,3.637,10.506,10.506,0,0,1-6.5,2.242A10.6,10.6,0,0,1,0,66.345,14.82,14.82,0,0,0,8.028,68.7a14.8,14.8,0,0,0,14.9-14.9q0-.341-.015-.677A10.638,10.638,0,0,0,25.525,50.411Z" transform="translate(-0.001 -47.956)" fill="#141414"/>
</svg>
