<svg id="Group_2688" data-name="Group 2688" xmlns="http://www.w3.org/2000/svg" width="35.898" height="35.895" viewBox="0 0 35.898 35.895">
  <g id="Group_1771" data-name="Group 1771" transform="translate(35.898 35.895) rotate(180)">
    <circle id="Ellipse_106" data-name="Ellipse 106" cx="17.948" cy="17.948" r="17.948" fill="#060e2c"/>
  </g>
  <path id="Intersection_1" data-name="Intersection 1" d="M16.151,14.4a1.207,1.207,0,0,1,.008-1.6l4.119-4.371H.1l-.074,0Q0,7.951,0,7.475c0-.42.017-.836.044-1.249H20.279L16.159,1.853a1.145,1.145,0,0,1-.008-1.6,1.253,1.253,0,0,1,1.6.091l5.862,6.228a1.242,1.242,0,0,1,.3.754,1.074,1.074,0,0,1-.3.759l-5.862,6.228a1.337,1.337,0,0,1-.906.343A.985.985,0,0,1,16.151,14.4Z" transform="translate(0 10.475)" fill="#fff"/>
</svg>
